<svg width="543" height="58" viewBox="0 0 543 58" fill="none" xmlns="http://www.w3.org/2000/svg">
<path d="M22.5003 57C20.1963 57 18.6843 56.832 17.9643 56.496C17.2443 56.16 16.7403 55.584 16.4523 54.768L0.540313 10.848C0.540313 9.936 2.24431 8.88 5.65231 7.68C9.10831 6.48 12.5883 5.88 16.0923 5.88C20.6043 5.88 23.0043 7.296 23.2923 10.128L25.7403 32.952H26.7483L28.7643 10.128C29.0043 7.296 32.2443 5.88 38.4843 5.88C40.8843 5.88 42.4923 6.216 43.3083 6.888C44.1243 7.512 44.5803 8.352 44.6763 9.408L47.0523 32.952H48.0603L49.9323 10.128C50.0763 8.736 51.7083 7.68 54.8283 6.96C57.9963 6.24 61.1163 5.88 64.1883 5.88C67.3083 5.88 69.4203 6.336 70.5243 7.248C71.6763 8.16 72.2523 9.12 72.2523 10.128L56.8443 54.768C56.3163 56.256 52.7643 57 46.1883 57C44.2203 57 42.9003 56.832 42.2283 56.496C41.5563 56.16 41.1003 55.584 40.8603 54.768L37.1163 42.24H36.2523L32.4363 54.768C32.0043 56.256 28.6923 57 22.5003 57ZM95.2653 19.776V55.272C95.2653 55.8 93.8733 56.232 91.0893 56.568C88.3533 56.856 85.5213 57 82.5933 57C79.7133 57 77.8413 56.88 76.9773 56.64C76.1613 56.352 75.7533 55.896 75.7533 55.272V21.072C75.7533 20.016 77.0973 18.984 79.7853 17.976C82.5213 16.92 85.4973 16.392 88.7133 16.392C93.0813 16.392 95.2653 17.52 95.2653 19.776ZM85.4733 0.839998C88.6413 0.839998 91.1133 1.32 92.8893 2.28C94.7133 3.192 95.6253 4.872 95.6253 7.32C95.6253 11.64 92.2653 13.8 85.5453 13.8C78.8253 13.8 75.4653 11.64 75.4653 7.32C75.4653 3 78.8013 0.839998 85.4733 0.839998ZM144.053 33.096V55.272C144.053 55.8 142.685 56.232 139.949 56.568C137.213 56.856 134.381 57 131.453 57C128.573 57 126.701 56.88 125.837 56.64C125.021 56.352 124.613 55.896 124.613 55.272V32.376C124.613 30.216 124.517 28.8 124.325 28.128C124.181 27.456 124.037 26.856 123.893 26.328C123.557 25.416 122.957 24.96 122.093 24.96C120.749 24.96 120.077 25.608 120.077 26.904V55.272C120.077 55.8 118.709 56.232 115.973 56.568C113.285 56.856 110.477 57 107.549 57C104.669 57 102.797 56.88 101.933 56.64C101.069 56.352 100.637 55.896 100.637 55.272V19.776C100.637 18.768 102.005 17.76 104.741 16.752C107.525 15.744 110.453 15.24 113.525 15.24C116.597 15.24 118.325 16.128 118.709 17.904L119.357 21.072H119.861C121.253 18.288 123.653 16.344 127.061 15.24C128.453 14.808 129.989 14.592 131.669 14.592C136.517 14.592 139.781 16.056 141.461 18.984C143.189 21.864 144.053 26.568 144.053 33.096ZM177.379 56.352C176.515 57.168 174.547 57.576 171.475 57.576C168.403 57.576 165.859 57.384 163.843 57C161.827 56.568 159.907 55.752 158.083 54.552C154.579 52.2 152.827 47.304 152.827 39.864V28.632H149.227C148.699 28.632 148.243 28.08 147.859 26.976C147.475 25.872 147.283 24.36 147.283 22.44C147.283 20.52 147.571 18.84 148.147 17.4C148.771 15.912 149.563 15.168 150.523 15.168H152.827V6.456C152.827 4.968 154.267 3.768 157.146 2.856C160.075 1.944 162.931 1.488 165.715 1.488C170.083 1.488 172.267 2.568 172.267 4.728V15.168H177.595C178.843 15.168 179.467 16.968 179.467 20.568C179.467 22.92 179.179 24.864 178.603 26.4C178.075 27.888 177.379 28.632 176.515 28.632H172.267V41.808C172.267 43.104 172.819 44.04 173.923 44.616C175.027 45.144 175.987 45.408 176.803 45.408C177.667 45.408 178.195 45.816 178.387 46.632C178.579 47.448 178.675 48.672 178.675 50.304C178.675 53.52 178.243 55.536 177.379 56.352ZM202.753 40.728C202.753 43.848 204.241 45.408 207.217 45.408C208.945 45.408 211.201 44.832 213.985 43.68C216.769 42.48 218.233 41.88 218.377 41.88C219.289 41.88 220.489 43.248 221.977 45.984C223.465 48.72 224.209 50.736 224.209 52.032C224.209 53.904 222.289 55.32 218.449 56.28C214.609 57.24 210.841 57.72 207.145 57.72C203.497 57.72 200.425 57.432 197.929 56.856C195.481 56.28 193.465 55.56 191.881 54.696C190.345 53.784 188.977 52.68 187.777 51.384C186.625 50.088 185.761 48.864 185.185 47.712C184.609 46.512 184.153 45.192 183.817 43.752C183.337 41.64 183.097 39.456 183.097 37.2C183.097 28.464 185.377 22.44 189.937 19.128C192.193 17.448 194.713 16.272 197.497 15.6C200.281 14.928 203.569 14.592 207.361 14.592C219.505 14.592 225.577 18.816 225.577 27.264C225.577 36.24 218.761 40.728 205.129 40.728H202.753ZM202.609 30.216V34.968C204.001 34.968 205.129 34.416 205.993 33.312C206.905 32.208 207.361 30.864 207.361 29.28C207.361 26.4 206.617 24.96 205.129 24.96C203.449 24.96 202.609 26.712 202.609 30.216ZM249.312 34.248V55.272C249.312 55.8 247.944 56.232 245.208 56.568C242.52 56.856 239.712 57 236.784 57C233.904 57 232.032 56.88 231.168 56.64C230.304 56.352 229.872 55.896 229.872 55.272V19.776C229.872 18.864 231.192 17.88 233.832 16.824C236.52 15.768 239.424 15.24 242.544 15.24C245.712 15.24 247.488 16.104 247.872 17.832L248.592 21.144H249.096C249.768 19.32 251.376 17.784 253.92 16.536C256.464 15.24 259.008 14.592 261.552 14.592C264.096 14.592 265.872 15 266.88 15.816C267.936 16.632 268.464 17.688 268.464 18.984C268.464 20.232 268.368 21.84 268.176 23.808C267.984 25.776 267.504 27.912 266.736 30.216C266.016 32.52 265.056 33.672 263.856 33.672C263.376 33.672 261.864 33.312 259.32 32.592C256.776 31.872 254.664 31.512 252.984 31.512C251.352 31.512 250.32 31.752 249.888 32.232C249.504 32.712 249.312 33.384 249.312 34.248ZM308.679 54.912C308.679 55.632 307.119 56.16 303.999 56.496C300.927 56.832 297.999 57 295.215 57C292.431 57 290.631 56.832 289.815 56.496C288.999 56.16 288.591 55.632 288.591 54.912V9.264C288.591 8.016 289.215 7.128 290.463 6.6C291.711 6.072 294.063 5.808 297.519 5.808H324.231C325.239 5.808 325.743 7.632 325.743 11.28C325.743 14.88 325.503 17.64 325.023 19.56C324.591 21.432 324.015 22.368 323.295 22.368L308.679 21.648V26.544C315.063 26.256 319.335 26.112 321.495 26.112C322.215 26.112 322.695 26.496 322.935 27.264C323.223 28.032 323.367 29.52 323.367 31.728C323.367 33.888 323.127 35.976 322.647 37.992C322.167 39.96 321.495 40.944 320.631 40.944L308.679 40.512V54.912ZM352.594 57.648C348.994 57.648 345.898 57.336 343.306 56.712C340.714 56.088 338.362 54.984 336.25 53.4C331.882 50.232 329.698 44.328 329.698 35.688C329.698 28.008 331.93 22.512 336.394 19.2C340.57 16.128 345.97 14.592 352.594 14.592C355.426 14.592 357.85 14.736 359.866 15.024C361.882 15.264 363.922 15.816 365.986 16.68C368.098 17.544 369.778 18.72 371.026 20.208C372.322 21.696 373.378 23.76 374.194 26.4C375.01 28.992 375.418 32.088 375.418 35.688C375.418 42.984 373.354 48.48 369.226 52.176C365.098 55.824 359.554 57.648 352.594 57.648ZM350.074 43.608C350.41 45.336 350.746 46.368 351.082 46.704C351.466 47.04 351.946 47.208 352.522 47.208C353.146 47.208 353.626 47.04 353.962 46.704C354.346 46.368 354.682 45.336 354.97 43.608C355.306 41.88 355.474 39.72 355.474 37.128C355.474 34.488 355.402 32.472 355.258 31.08C355.162 29.64 355.018 28.536 354.826 27.768C354.682 27 354.466 26.4 354.178 25.968C353.746 25.344 353.218 25.032 352.594 25.032C352.018 25.032 351.538 25.224 351.154 25.608C350.77 25.944 350.41 27 350.074 28.776C349.738 30.504 349.57 32.976 349.57 36.192C349.57 39.408 349.738 41.88 350.074 43.608ZM399.148 34.248V55.272C399.148 55.8 397.78 56.232 395.044 56.568C392.356 56.856 389.548 57 386.62 57C383.74 57 381.868 56.88 381.004 56.64C380.14 56.352 379.708 55.896 379.708 55.272V19.776C379.708 18.864 381.028 17.88 383.668 16.824C386.356 15.768 389.26 15.24 392.38 15.24C395.548 15.24 397.324 16.104 397.708 17.832L398.428 21.144H398.932C399.604 19.32 401.212 17.784 403.756 16.536C406.3 15.24 408.844 14.592 411.388 14.592C413.932 14.592 415.708 15 416.716 15.816C417.772 16.632 418.3 17.688 418.3 18.984C418.3 20.232 418.204 21.84 418.012 23.808C417.82 25.776 417.34 27.912 416.572 30.216C415.852 32.52 414.892 33.672 413.692 33.672C413.212 33.672 411.7 33.312 409.156 32.592C406.612 31.872 404.5 31.512 402.82 31.512C401.188 31.512 400.156 31.752 399.724 32.232C399.34 32.712 399.148 33.384 399.148 34.248ZM440.831 40.728C440.831 43.848 442.319 45.408 445.295 45.408C447.023 45.408 449.279 44.832 452.063 43.68C454.847 42.48 456.311 41.88 456.455 41.88C457.367 41.88 458.567 43.248 460.055 45.984C461.543 48.72 462.287 50.736 462.287 52.032C462.287 53.904 460.367 55.32 456.527 56.28C452.687 57.24 448.919 57.72 445.223 57.72C441.575 57.72 438.503 57.432 436.007 56.856C433.559 56.28 431.543 55.56 429.959 54.696C428.423 53.784 427.055 52.68 425.855 51.384C424.703 50.088 423.839 48.864 423.263 47.712C422.687 46.512 422.231 45.192 421.895 43.752C421.415 41.64 421.175 39.456 421.175 37.2C421.175 28.464 423.455 22.44 428.015 19.128C430.271 17.448 432.791 16.272 435.575 15.6C438.359 14.928 441.647 14.592 445.439 14.592C457.583 14.592 463.655 18.816 463.655 27.264C463.655 36.24 456.839 40.728 443.207 40.728H440.831ZM440.687 30.216V34.968C442.079 34.968 443.207 34.416 444.071 33.312C444.983 32.208 445.439 30.864 445.439 29.28C445.439 26.4 444.695 24.96 443.207 24.96C441.527 24.96 440.687 26.712 440.687 30.216ZM487.534 57.648C479.566 57.648 473.734 56.88 470.038 55.344C468.166 54.528 467.23 53.736 467.23 52.968C467.23 51 467.806 48.696 468.958 46.056C470.11 43.416 471.118 42.096 471.982 42.096C472.462 42.096 474.07 42.624 476.806 43.68C479.59 44.736 481.918 45.264 483.79 45.264C485.71 45.264 486.958 45.144 487.534 44.904C488.158 44.664 488.47 44.208 488.47 43.536C488.47 42.816 487.99 42.264 487.03 41.88C486.07 41.448 484.87 41.16 483.43 41.016C481.99 40.872 480.43 40.584 478.75 40.152C477.118 39.72 475.582 39.168 474.142 38.496C472.702 37.824 471.502 36.72 470.542 35.184C469.582 33.6 469.102 31.92 469.102 30.144C469.102 28.32 469.15 26.976 469.246 26.112C469.342 25.2 469.726 23.952 470.398 22.368C471.118 20.736 472.102 19.416 473.35 18.408C474.646 17.4 476.614 16.488 479.254 15.672C481.942 14.856 484.942 14.448 488.254 14.448C491.566 14.448 494.326 14.568 496.534 14.808C498.79 15 500.542 15.264 501.79 15.6C503.086 15.936 504.142 16.32 504.958 16.752C506.35 17.472 507.046 18.264 507.046 19.128C507.046 21 506.374 23.16 505.03 25.608C503.686 28.056 502.606 29.28 501.79 29.28C501.022 29.28 499.318 28.872 496.678 28.056C494.038 27.192 492.094 26.76 490.846 26.76C488.83 26.76 487.822 27.336 487.822 28.488C487.822 29.208 488.494 29.76 489.838 30.144C491.23 30.48 492.886 30.84 494.806 31.224C496.726 31.608 498.646 32.16 500.566 32.88C502.534 33.552 504.19 34.8 505.534 36.624C506.926 38.448 507.622 40.752 507.622 43.536C507.622 52.944 500.926 57.648 487.534 57.648ZM540.261 56.352C539.397 57.168 537.429 57.576 534.357 57.576C531.285 57.576 528.741 57.384 526.725 57C524.709 56.568 522.789 55.752 520.965 54.552C517.461 52.2 515.709 47.304 515.709 39.864V28.632H512.109C511.581 28.632 511.125 28.08 510.741 26.976C510.357 25.872 510.165 24.36 510.165 22.44C510.165 20.52 510.453 18.84 511.029 17.4C511.653 15.912 512.445 15.168 513.405 15.168H515.709V6.456C515.709 4.968 517.149 3.768 520.029 2.856C522.957 1.944 525.813 1.488 528.597 1.488C532.965 1.488 535.149 2.568 535.149 4.728V15.168H540.477C541.725 15.168 542.349 16.968 542.349 20.568C542.349 22.92 542.061 24.864 541.485 26.4C540.957 27.888 540.261 28.632 539.397 28.632H535.149V41.808C535.149 43.104 535.701 44.04 536.805 44.616C537.909 45.144 538.869 45.408 539.685 45.408C540.549 45.408 541.077 45.816 541.269 46.632C541.461 47.448 541.557 48.672 541.557 50.304C541.557 53.52 541.125 55.536 540.261 56.352Z" fill="url(#paint0_linear)"/>
<defs>
<linearGradient id="paint0_linear" x1="273.008" y1="-219.069" x2="271.679" y2="119.999" gradientUnits="userSpaceOnUse">
<stop offset="0.630208" stop-color="#42FF00"/>
<stop offset="0.651042" stop-color="#04F72B"/>
<stop offset="0.677083" stop-color="#0ADF2C"/>
<stop offset="0.708333" stop-color="#18D737"/>
<stop offset="0.734375" stop-color="#928908"/>
<stop offset="0.807292" stop-color="#B35600"/>
<stop offset="0.880208" stop-color="#A5550B" stop-opacity="0"/>
</linearGradient>
</defs>
</svg>
