<svg width="567" height="58" viewBox="0 0 567 58" fill="none" xmlns="http://www.w3.org/2000/svg">
<path d="M22.2659 57C19.9619 57 18.4499 56.832 17.7299 56.496C17.0099 56.16 16.5059 55.584 16.2179 54.768L0.305938 10.848C0.305938 9.936 2.00994 8.88 5.41794 7.68C8.87394 6.48 12.3539 5.88 15.8579 5.88C20.3699 5.88 22.7699 7.296 23.0579 10.128L25.5059 32.952H26.5139L28.5299 10.128C28.7699 7.296 32.0099 5.88 38.2499 5.88C40.6499 5.88 42.2579 6.216 43.0739 6.888C43.8899 7.512 44.3459 8.352 44.4419 9.408L46.8179 32.952H47.8259L49.6979 10.128C49.8419 8.736 51.4739 7.68 54.5939 6.96C57.7619 6.24 60.8819 5.88 63.9539 5.88C67.0739 5.88 69.1859 6.336 70.2899 7.248C71.4419 8.16 72.0179 9.12 72.0179 10.128L56.6099 54.768C56.0819 56.256 52.5299 57 45.9539 57C43.9859 57 42.6659 56.832 41.9939 56.496C41.3219 56.16 40.8659 55.584 40.6259 54.768L36.8819 42.24H36.0179L32.2019 54.768C31.7699 56.256 28.4579 57 22.2659 57ZM95.0309 19.776V55.272C95.0309 55.8 93.6389 56.232 90.8549 56.568C88.1189 56.856 85.2869 57 82.3589 57C79.4789 57 77.6069 56.88 76.7429 56.64C75.9269 56.352 75.5189 55.896 75.5189 55.272V21.072C75.5189 20.016 76.8629 18.984 79.5509 17.976C82.2869 16.92 85.2629 16.392 88.4789 16.392C92.8469 16.392 95.0309 17.52 95.0309 19.776ZM85.2389 0.839998C88.4069 0.839998 90.8789 1.32 92.6549 2.28C94.4789 3.192 95.3909 4.872 95.3909 7.32C95.3909 11.64 92.0309 13.8 85.3109 13.8C78.5909 13.8 75.2309 11.64 75.2309 7.32C75.2309 3 78.5669 0.839998 85.2389 0.839998ZM143.819 33.096V55.272C143.819 55.8 142.451 56.232 139.715 56.568C136.979 56.856 134.147 57 131.219 57C128.339 57 126.467 56.88 125.603 56.64C124.787 56.352 124.379 55.896 124.379 55.272V32.376C124.379 30.216 124.283 28.8 124.091 28.128C123.947 27.456 123.803 26.856 123.659 26.328C123.323 25.416 122.723 24.96 121.859 24.96C120.515 24.96 119.843 25.608 119.843 26.904V55.272C119.843 55.8 118.475 56.232 115.739 56.568C113.051 56.856 110.243 57 107.315 57C104.435 57 102.563 56.88 101.699 56.64C100.835 56.352 100.403 55.896 100.403 55.272V19.776C100.403 18.768 101.771 17.76 104.507 16.752C107.291 15.744 110.219 15.24 113.291 15.24C116.363 15.24 118.091 16.128 118.475 17.904L119.123 21.072H119.627C121.019 18.288 123.419 16.344 126.827 15.24C128.219 14.808 129.755 14.592 131.435 14.592C136.283 14.592 139.547 16.056 141.227 18.984C142.955 21.864 143.819 26.568 143.819 33.096ZM177.144 56.352C176.28 57.168 174.312 57.576 171.24 57.576C168.168 57.576 165.624 57.384 163.608 57C161.592 56.568 159.672 55.752 157.848 54.552C154.344 52.2 152.592 47.304 152.592 39.864V28.632H148.992C148.464 28.632 148.008 28.08 147.624 26.976C147.24 25.872 147.048 24.36 147.048 22.44C147.048 20.52 147.336 18.84 147.912 17.4C148.536 15.912 149.328 15.168 150.288 15.168H152.592V6.456C152.592 4.968 154.032 3.768 156.912 2.856C159.84 1.944 162.696 1.488 165.48 1.488C169.848 1.488 172.032 2.568 172.032 4.728V15.168H177.36C178.608 15.168 179.232 16.968 179.232 20.568C179.232 22.92 178.944 24.864 178.368 26.4C177.84 27.888 177.144 28.632 176.28 28.632H172.032V41.808C172.032 43.104 172.584 44.04 173.688 44.616C174.792 45.144 175.752 45.408 176.568 45.408C177.432 45.408 177.96 45.816 178.152 46.632C178.344 47.448 178.44 48.672 178.44 50.304C178.44 53.52 178.008 55.536 177.144 56.352ZM202.519 40.728C202.519 43.848 204.007 45.408 206.983 45.408C208.711 45.408 210.967 44.832 213.751 43.68C216.535 42.48 217.999 41.88 218.143 41.88C219.055 41.88 220.255 43.248 221.742 45.984C223.231 48.72 223.975 50.736 223.975 52.032C223.975 53.904 222.055 55.32 218.215 56.28C214.375 57.24 210.607 57.72 206.911 57.72C203.263 57.72 200.191 57.432 197.695 56.856C195.247 56.28 193.231 55.56 191.646 54.696C190.111 53.784 188.743 52.68 187.543 51.384C186.391 50.088 185.527 48.864 184.951 47.712C184.375 46.512 183.919 45.192 183.583 43.752C183.103 41.64 182.863 39.456 182.863 37.2C182.863 28.464 185.143 22.44 189.703 19.128C191.959 17.448 194.479 16.272 197.263 15.6C200.047 14.928 203.335 14.592 207.127 14.592C219.271 14.592 225.343 18.816 225.343 27.264C225.343 36.24 218.527 40.728 204.895 40.728H202.519ZM202.375 30.216V34.968C203.767 34.968 204.895 34.416 205.759 33.312C206.671 32.208 207.127 30.864 207.127 29.28C207.127 26.4 206.383 24.96 204.895 24.96C203.215 24.96 202.375 26.712 202.375 30.216ZM249.077 34.248V55.272C249.077 55.8 247.709 56.232 244.973 56.568C242.285 56.856 239.477 57 236.549 57C233.669 57 231.797 56.88 230.933 56.64C230.069 56.352 229.637 55.896 229.637 55.272V19.776C229.637 18.864 230.957 17.88 233.597 16.824C236.285 15.768 239.189 15.24 242.309 15.24C245.477 15.24 247.253 16.104 247.637 17.832L248.357 21.144H248.861C249.533 19.32 251.141 17.784 253.685 16.536C256.229 15.24 258.773 14.592 261.317 14.592C263.861 14.592 265.637 15 266.645 15.816C267.701 16.632 268.229 17.688 268.229 18.984C268.229 20.232 268.133 21.84 267.941 23.808C267.749 25.776 267.269 27.912 266.501 30.216C265.781 32.52 264.821 33.672 263.621 33.672C263.141 33.672 261.629 33.312 259.085 32.592C256.541 31.872 254.429 31.512 252.749 31.512C251.117 31.512 250.085 31.752 249.653 32.232C249.269 32.712 249.077 33.384 249.077 34.248ZM308.445 54.912C308.445 55.632 306.885 56.16 303.765 56.496C300.693 56.832 297.765 57 294.981 57C292.197 57 290.397 56.832 289.581 56.496C288.765 56.16 288.357 55.632 288.357 54.912V9.264C288.357 8.016 288.981 7.128 290.229 6.6C291.477 6.072 293.829 5.808 297.285 5.808H323.997C325.005 5.808 325.509 7.632 325.509 11.28C325.509 14.88 325.269 17.64 324.789 19.56C324.357 21.432 323.781 22.368 323.061 22.368L308.445 21.648V26.544C314.829 26.256 319.101 26.112 321.261 26.112C321.981 26.112 322.461 26.496 322.701 27.264C322.989 28.032 323.133 29.52 323.133 31.728C323.133 33.888 322.893 35.976 322.413 37.992C321.933 39.96 321.261 40.944 320.397 40.944L308.445 40.512V54.912ZM349.624 4.152V55.272C349.624 55.8 348.256 56.232 345.52 56.568C342.784 56.856 339.952 57 337.024 57C334.144 57 332.272 56.88 331.408 56.64C330.592 56.352 330.184 55.896 330.184 55.272V5.448C330.184 4.392 331.528 3.36 334.216 2.352C336.952 1.344 339.88 0.839998 343 0.839998C347.416 0.839998 349.624 1.944 349.624 4.152ZM376.829 57.648C373.229 57.648 370.133 57.336 367.541 56.712C364.949 56.088 362.597 54.984 360.485 53.4C356.117 50.232 353.933 44.328 353.933 35.688C353.933 28.008 356.165 22.512 360.629 19.2C364.805 16.128 370.205 14.592 376.829 14.592C379.661 14.592 382.085 14.736 384.101 15.024C386.117 15.264 388.157 15.816 390.221 16.68C392.333 17.544 394.013 18.72 395.261 20.208C396.557 21.696 397.613 23.76 398.429 26.4C399.245 28.992 399.653 32.088 399.653 35.688C399.653 42.984 397.589 48.48 393.461 52.176C389.333 55.824 383.789 57.648 376.829 57.648ZM374.309 43.608C374.645 45.336 374.981 46.368 375.317 46.704C375.701 47.04 376.181 47.208 376.757 47.208C377.381 47.208 377.861 47.04 378.197 46.704C378.581 46.368 378.917 45.336 379.205 43.608C379.541 41.88 379.709 39.72 379.709 37.128C379.709 34.488 379.637 32.472 379.493 31.08C379.397 29.64 379.253 28.536 379.061 27.768C378.917 27 378.701 26.4 378.413 25.968C377.981 25.344 377.453 25.032 376.829 25.032C376.253 25.032 375.773 25.224 375.389 25.608C375.005 25.944 374.645 27 374.309 28.776C373.973 30.504 373.805 32.976 373.805 36.192C373.805 39.408 373.973 41.88 374.309 43.608ZM423.382 34.248V55.272C423.382 55.8 422.014 56.232 419.278 56.568C416.59 56.856 413.782 57 410.854 57C407.974 57 406.102 56.88 405.238 56.64C404.374 56.352 403.942 55.896 403.942 55.272V19.776C403.942 18.864 405.262 17.88 407.902 16.824C410.59 15.768 413.494 15.24 416.614 15.24C419.782 15.24 421.558 16.104 421.942 17.832L422.662 21.144H423.166C423.838 19.32 425.446 17.784 427.99 16.536C430.534 15.24 433.078 14.592 435.622 14.592C438.166 14.592 439.942 15 440.95 15.816C442.006 16.632 442.534 17.688 442.534 18.984C442.534 20.232 442.438 21.84 442.246 23.808C442.054 25.776 441.574 27.912 440.806 30.216C440.086 32.52 439.126 33.672 437.926 33.672C437.446 33.672 435.934 33.312 433.39 32.592C430.846 31.872 428.734 31.512 427.054 31.512C425.422 31.512 424.39 31.752 423.958 32.232C423.574 32.712 423.382 33.384 423.382 34.248ZM465.065 40.728C465.065 43.848 466.553 45.408 469.529 45.408C471.257 45.408 473.513 44.832 476.297 43.68C479.081 42.48 480.545 41.88 480.689 41.88C481.601 41.88 482.801 43.248 484.289 45.984C485.777 48.72 486.521 50.736 486.521 52.032C486.521 53.904 484.601 55.32 480.761 56.28C476.921 57.24 473.153 57.72 469.457 57.72C465.809 57.72 462.737 57.432 460.241 56.856C457.793 56.28 455.777 55.56 454.193 54.696C452.657 53.784 451.289 52.68 450.089 51.384C448.937 50.088 448.073 48.864 447.497 47.712C446.921 46.512 446.465 45.192 446.129 43.752C445.649 41.64 445.409 39.456 445.409 37.2C445.409 28.464 447.689 22.44 452.249 19.128C454.505 17.448 457.025 16.272 459.809 15.6C462.593 14.928 465.881 14.592 469.673 14.592C481.817 14.592 487.889 18.816 487.889 27.264C487.889 36.24 481.073 40.728 467.441 40.728H465.065ZM464.921 30.216V34.968C466.313 34.968 467.441 34.416 468.305 33.312C469.217 32.208 469.673 30.864 469.673 29.28C469.673 26.4 468.929 24.96 467.441 24.96C465.761 24.96 464.921 26.712 464.921 30.216ZM511.768 57.648C503.8 57.648 497.968 56.88 494.272 55.344C492.4 54.528 491.464 53.736 491.464 52.968C491.464 51 492.04 48.696 493.192 46.056C494.344 43.416 495.352 42.096 496.216 42.096C496.696 42.096 498.304 42.624 501.04 43.68C503.824 44.736 506.152 45.264 508.024 45.264C509.944 45.264 511.192 45.144 511.768 44.904C512.392 44.664 512.704 44.208 512.704 43.536C512.704 42.816 512.224 42.264 511.264 41.88C510.304 41.448 509.104 41.16 507.664 41.016C506.224 40.872 504.664 40.584 502.984 40.152C501.352 39.72 499.816 39.168 498.376 38.496C496.936 37.824 495.736 36.72 494.776 35.184C493.816 33.6 493.336 31.92 493.336 30.144C493.336 28.32 493.384 26.976 493.48 26.112C493.576 25.2 493.96 23.952 494.632 22.368C495.352 20.736 496.336 19.416 497.584 18.408C498.88 17.4 500.848 16.488 503.488 15.672C506.176 14.856 509.176 14.448 512.488 14.448C515.8 14.448 518.56 14.568 520.768 14.808C523.024 15 524.776 15.264 526.024 15.6C527.32 15.936 528.376 16.32 529.192 16.752C530.584 17.472 531.28 18.264 531.28 19.128C531.28 21 530.608 23.16 529.264 25.608C527.92 28.056 526.84 29.28 526.024 29.28C525.256 29.28 523.552 28.872 520.912 28.056C518.272 27.192 516.328 26.76 515.08 26.76C513.064 26.76 512.056 27.336 512.056 28.488C512.056 29.208 512.728 29.76 514.072 30.144C515.464 30.48 517.12 30.84 519.04 31.224C520.96 31.608 522.88 32.16 524.8 32.88C526.768 33.552 528.424 34.8 529.768 36.624C531.16 38.448 531.856 40.752 531.856 43.536C531.856 52.944 525.16 57.648 511.768 57.648ZM564.496 56.352C563.632 57.168 561.664 57.576 558.592 57.576C555.52 57.576 552.976 57.384 550.96 57C548.944 56.568 547.024 55.752 545.2 54.552C541.696 52.2 539.944 47.304 539.944 39.864V28.632H536.344C535.816 28.632 535.36 28.08 534.976 26.976C534.592 25.872 534.4 24.36 534.4 22.44C534.4 20.52 534.688 18.84 535.264 17.4C535.888 15.912 536.68 15.168 537.64 15.168H539.944V6.456C539.944 4.968 541.384 3.768 544.264 2.856C547.192 1.944 550.048 1.488 552.832 1.488C557.2 1.488 559.384 2.568 559.384 4.728V15.168H564.712C565.96 15.168 566.584 16.968 566.584 20.568C566.584 22.92 566.296 24.864 565.72 26.4C565.192 27.888 564.496 28.632 563.632 28.632H559.384V41.808C559.384 43.104 559.936 44.04 561.04 44.616C562.144 45.144 563.104 45.408 563.92 45.408C564.784 45.408 565.312 45.816 565.504 46.632C565.696 47.448 565.792 48.672 565.792 50.304C565.792 53.52 565.36 55.536 564.496 56.352Z" fill="url(#paint0_linear)"/>
<defs>
<linearGradient id="paint0_linear" x1="285.008" y1="-219.069" x2="283.679" y2="119.999" gradientUnits="userSpaceOnUse">
<stop offset="0.630208" stop-color="#42FF00"/>
<stop offset="0.651042" stop-color="#04F72B"/>
<stop offset="0.677083" stop-color="#0ADF2C"/>
<stop offset="0.708333" stop-color="#18D737"/>
<stop offset="0.734375" stop-color="#928908"/>
<stop offset="0.807292" stop-color="#B35600"/>
<stop offset="0.880208" stop-color="#A5550B" stop-opacity="0"/>
</linearGradient>
</defs>
</svg>
